<svg xmlns="http://www.w3.org/2000/svg">
  <symbol width="23" height="23" viewBox="0 0 23 23" fill="none" id="header__phone">
    <path
      d="M4.91953 0.494151C4.53477 0.462901 4.10703 0.574229 3.7125 0.851573C3.36485 1.09376 2.61485 1.68946 1.91367 2.36329C1.56406 2.69923 1.23008 3.04884 0.972268 3.39259C0.712502 3.73634 0.48594 4.05079 0.499612 4.50782C0.513284 4.91798 0.554299 6.13087 1.42735 7.99024C2.30039 9.84767 3.99375 12.3965 7.29649 15.7012C10.6012 19.0059 13.15 20.6992 15.0074 21.5723C16.8648 22.4453 18.0797 22.4863 18.4898 22.5C18.9449 22.5137 19.2594 22.2871 19.6031 22.0274C19.9469 21.7676 20.2965 21.4356 20.6324 21.0859C21.3043 20.3848 21.9 19.6348 22.1422 19.2871C22.6949 18.5 22.6031 17.5703 21.9879 17.1387C21.6012 16.8672 18.0445 14.5 17.5094 14.1719C16.9664 13.8399 16.3414 13.9902 15.7828 14.2852C15.3434 14.5176 14.1539 15.1992 13.8141 15.3945C13.5582 15.2324 12.5875 14.5859 10.4996 12.4981C8.40977 10.4102 7.76524 9.43946 7.60313 9.1836C7.79844 8.84376 8.47813 7.66017 8.7125 7.2129C9.00547 6.65626 9.16953 6.0254 8.81992 5.47853C8.67344 5.2461 8.00742 4.23243 7.33555 3.21485C6.66172 2.19728 6.02305 1.23243 5.85703 1.00196V1.00001C5.64024 0.701182 5.30235 0.525401 4.91953 0.494151ZM4.82774 1.51564C4.96446 1.53321 5.04649 1.5879 5.04649 1.5879C5.12656 1.69923 5.82774 2.75001 6.49961 3.76564C7.17149 4.78321 7.85703 5.82618 7.97617 6.01564C7.99571 6.04493 8.02305 6.37696 7.82774 6.7461V6.74806C7.60703 7.16798 6.57774 8.96681 6.57774 8.96681L6.43516 9.21876L6.58164 9.46876C6.58164 9.46876 7.34922 10.7637 9.79063 13.2051C12.234 15.6465 13.5289 16.416 13.5289 16.416L13.7789 16.5625L14.0309 16.4199C14.0309 16.4199 15.8258 15.3926 16.2496 15.1699C16.6188 14.9766 16.9508 15.002 16.9898 15.0254C17.3356 15.2383 21.1773 17.791 21.4137 17.957C21.4215 17.9629 21.6305 18.2793 21.3258 18.7129H21.3238C21.1402 18.9766 20.5387 19.7402 19.9117 20.3926C19.5973 20.7188 19.275 21.0234 19.0016 21.2285C18.7281 21.4336 18.484 21.4981 18.5231 21.5C18.0973 21.4863 17.1578 21.4766 15.4332 20.666C13.7086 19.8574 11.2477 18.2383 8.00352 14.9922C4.76133 11.75 3.14219 9.28907 2.33164 7.56251C1.52305 5.8379 1.51328 4.89845 1.49961 4.47462C1.50156 4.51368 1.56602 4.26759 1.7711 3.99415C1.97617 3.72071 2.27891 3.39649 2.60508 3.08204C3.25938 2.45509 4.0211 1.85353 4.28477 1.66993V1.67189C4.50156 1.51954 4.69102 1.50001 4.82774 1.51564Z"
      fill="url(#paint0_linear_177_1727)" />
    <defs>
      <linearGradient id="paint0_linear_177_1727" x1="11.5034" y1="0.489044" x2="11.5034" y2="22.5006"
        gradientUnits="userSpaceOnUse">
        <stop stop-color="#4ABCEC" />
        <stop offset="1" stop-color="#4A8BEC" />
      </linearGradient>
    </defs>
  </symbol>
  <symbol width="32" height="32" viewBox="0 0 32 32" fill="none" id="accordion__btn">
    <mask id="path-1-inside-1_14750_9" fill="white">
      <path
        d="M0 6C0 2.68629 2.68629 0 6 0H26C29.3137 0 32 2.68629 32 6V26C32 29.3137 29.3137 32 26 32H6C2.68629 32 0 29.3137 0 26V6Z" />
    </mask>
    <path
      d="M0 6C0 2.68629 2.68629 0 6 0H26C29.3137 0 32 2.68629 32 6V26C32 29.3137 29.3137 32 26 32H6C2.68629 32 0 29.3137 0 26V6Z"
      fill="url(#paint0_linear_14750_9)" fill-opacity="0.11" />
    <g clip-path="url(#paint1_diamond_14750_9_clip_path)" data-figma-skip-parse="true"
      mask="url(#path-1-inside-1_14750_9)">
      <g transform="matrix(-0.015214 0.0149677 -0.0149677 -0.0357197 16 16)">
        <rect x="0" y="0" width="1188.8" height="707.87" fill="url(#paint1_diamond_14750_9)" opacity="1"
          shape-rendering="crispEdges" />
        <rect x="0" y="0" width="1188.8" height="707.87" transform="scale(1 -1)" fill="url(#paint1_diamond_14750_9)"
          opacity="1" shape-rendering="crispEdges" />
        <rect x="0" y="0" width="1188.8" height="707.87" transform="scale(-1 1)" fill="url(#paint1_diamond_14750_9)"
          opacity="1" shape-rendering="crispEdges" />
        <rect x="0" y="0" width="1188.8" height="707.87" transform="scale(-1)" fill="url(#paint1_diamond_14750_9)"
          opacity="1" shape-rendering="crispEdges" />
      </g>
    </g>
    <path
      d="M6 2H26V-2H6V2ZM30 6V26H34V6H30ZM26 30H6V34H26V30ZM2 26V6H-2V26H2ZM6 30C3.79086 30 2 28.2091 2 26H-2C-2 30.4183 1.58172 34 6 34V30ZM30 26C30 28.2091 28.2091 30 26 30V34C30.4183 34 34 30.4183 34 26H30ZM26 2C28.2091 2 30 3.79086 30 6H34C34 1.58172 30.4183 -2 26 -2V2ZM6 -2C1.58172 -2 -2 1.58172 -2 6H2C2 3.79086 3.79086 2 6 2V-2Z"
      data-figma-gradient-fill="{&#34;type&#34;:&#34;GRADIENT_DIAMOND&#34;,&#34;stops&#34;:[{&#34;color&#34;:{&#34;r&#34;:0.28627452254295349,&#34;g&#34;:0.72549021244049072,&#34;b&#34;:0.90980392694473267,&#34;a&#34;:1.0},&#34;position&#34;:0.0},{&#34;color&#34;:{&#34;r&#34;:0.12156862020492554,&#34;g&#34;:0.30196088552474976,&#34;b&#34;:0.37647059559822083,&#34;a&#34;:0.43000000715255737},&#34;position&#34;:1.0}],&#34;stopsVar&#34;:[],&#34;transform&#34;:{&#34;m00&#34;:-30.428070068359375,&#34;m01&#34;:-29.935483932495117,&#34;m02&#34;:46.181777954101562,&#34;m10&#34;:29.935483932495117,&#34;m11&#34;:-71.439468383789062,&#34;m12&#34;:36.751995086669922},&#34;opacity&#34;:1.0,&#34;blendMode&#34;:&#34;NORMAL&#34;,&#34;visible&#34;:true}"
      mask="url(#path-1-inside-1_14750_9)" />
    <path d="M10.0605 18.9395L17.0605 11.9395M21.9392 18.9395L14.9392 11.9395" stroke="#4ABCEC" stroke-width="3" />
    <defs>
      <clipPath id="paint1_diamond_14750_9_clip_path">
        <path
          d="M6 2H26V-2H6V2ZM30 6V26H34V6H30ZM26 30H6V34H26V30ZM2 26V6H-2V26H2ZM6 30C3.79086 30 2 28.2091 2 26H-2C-2 30.4183 1.58172 34 6 34V30ZM30 26C30 28.2091 28.2091 30 26 30V34C30.4183 34 34 30.4183 34 26H30ZM26 2C28.2091 2 30 3.79086 30 6H34C34 1.58172 30.4183 -2 26 -2V2ZM6 -2C1.58172 -2 -2 1.58172 -2 6H2C2 3.79086 3.79086 2 6 2V-2Z"
          mask="url(#path-1-inside-1_14750_9)" />
      </clipPath>
      <linearGradient id="paint0_linear_14750_9" x1="16" y1="0" x2="16" y2="32" gradientUnits="userSpaceOnUse">
        <stop stop-color="#00E0FF" />
        <stop offset="1" stop-color="#00E0FF" stop-opacity="0.49" />
      </linearGradient>
      <linearGradient id="paint1_diamond_14750_9" x1="0" y1="0" x2="500" y2="500" gradientUnits="userSpaceOnUse">
        <stop stop-color="#49B9E8" />
        <stop offset="1" stop-color="#1F4D60" stop-opacity="0.43" />
      </linearGradient>
    </defs>
  </symbol>
  <symbol width="26" height="26" viewBox="0 0 26 26" fill="none" id="accordion__arow">
    <g filter="url(#filter0_d_177_1959)">
      <circle cx="13" cy="9" r="5" fill="url(#paint0_linear_177_1959)" />
    </g>
    <defs>
      <filter id="filter0_d_177_1959" x="0" y="0" width="26" height="26" filterUnits="userSpaceOnUse"
        color-interpolation-filters="sRGB">
        <feFlood flood-opacity="0" result="BackgroundImageFix" />
        <feColorMatrix in="SourceAlpha" type="matrix" values="0 0 0 0 0 0 0 0 0 0 0 0 0 0 0 0 0 0 127 0"
          result="hardAlpha" />
        <feOffset dy="4" />
        <feGaussianBlur stdDeviation="4" />
        <feComposite in2="hardAlpha" operator="out" />
        <feColorMatrix type="matrix" values="0 0 0 0 0 0 0 0 0 0.88 0 0 0 0 1 0 0 0 0.56 0" />
        <feBlend mode="normal" in2="BackgroundImageFix" result="effect1_dropShadow_177_1959" />
        <feBlend mode="normal" in="SourceGraphic" in2="effect1_dropShadow_177_1959" result="shape" />
      </filter>
      <linearGradient id="paint0_linear_177_1959" x1="13" y1="4" x2="13" y2="14" gradientUnits="userSpaceOnUse">
        <stop stop-color="#00E0FF" />
        <stop offset="1" stop-color="#4A8BEC" />
      </linearGradient>
    </defs>
  </symbol>
  <symbol width="25" height="25" viewBox="0 0 25 25" fill="none" id="mail__footer">
    <path
      d="M0 7V7.5V25H25V7H0ZM1 8H24V9.28125C23.7774 9.47479 14.9085 17.1857 14.1729 17.8232C13.5269 18.3831 12.8391 18.501 12.5 18.501C12.1609 18.501 11.4731 18.3831 10.8271 17.8232C10.6417 17.6625 9.31134 16.5058 8.34961 15.6699L8.33984 15.6572L8.33789 15.6592C5.48222 13.1771 1.1662 9.42576 1 9.28125V8ZM1 10.6025C1.87369 11.3623 4.92064 14.0112 7.54102 16.2891L1 21.457V10.6025ZM24 10.6025V21.459L17.4453 16.3008C20.0643 14.0241 23.1245 11.3639 24 10.6025ZM8.30859 16.957C8.92647 17.4941 10.0314 18.4546 10.1729 18.5771C11.0269 19.3173 11.9391 19.499 12.5 19.499C13.0609 19.499 13.9731 19.3173 14.8271 18.5771C14.9675 18.4555 16.0663 17.4993 16.6768 16.9688L24 22.7324V24H1V22.7324L8.30859 16.957Z"
      fill="url(#paint0_linear_177_2235)" />
    <defs>
      <linearGradient id="paint0_linear_177_2235" x1="12.5" y1="7" x2="12.5" y2="25" gradientUnits="userSpaceOnUse">
        <stop stop-color="#4ABCEC" />
        <stop offset="1" stop-color="#4A8BEC" />
      </linearGradient>
    </defs>
  </symbol>

  <symbol width="24" height="24" viewBox="0 0 24 24" fill="none" id="facebook">
    <path
      d="M17.525 9.00006H14V7.00006C14 5.96806 14.084 5.31806 15.563 5.31806H17.431V2.13806C16.522 2.04406 15.608 1.99806 14.693 2.00006C11.98 2.00006 10 3.65706 10 6.69906V9.00006H7V13.0001L10 12.9991V22.0001H14V12.9971L17.066 12.9961L17.525 9.00006Z"
      fill="url(#paint0_linear_177_2240)" />
    <defs>
      <linearGradient id="paint0_linear_177_2240" x1="18.8744" y1="2" x2="1.45717" y2="10.1205"
        gradientUnits="userSpaceOnUse">
        <stop offset="0.25" stop-color="#3B768F" />
        <stop offset="0.536458" stop-color="#3EC6FF" />
        <stop offset="0.817708" stop-color="#3B768F" />
      </linearGradient>
    </defs>
  </symbol>

  <symbol width="30" height="30" viewBox="0 0 30 30" fill="none" id="messanger">
    <path
      d="M15 3C8.373 3 3 8.149 3 14.5C3 17.9012 4.55067 20.9472 7 23.0527V28L11.8359 25.582C12.8455 25.8463 13.903 26 15 26C21.627 26 27 20.851 27 14.5C27 8.149 21.627 3 15 3ZM13.8613 11.3574L16.8125 14.3125L22.084 11.3574L16.1387 17.8008L13.2559 14.7031L7.8457 17.7305L13.8613 11.3574Z"
      fill="url(#paint0_linear_177_2242)" />
    <defs>
      <linearGradient id="paint0_linear_177_2242" x1="30.0769" y1="3" x2="2.02208" y2="26.8613"
        gradientUnits="userSpaceOnUse">
        <stop offset="0.25" stop-color="#3B768F" />
        <stop offset="0.536458" stop-color="#3EC6FF" />
        <stop offset="0.817708" stop-color="#3B768F" />
      </linearGradient>
    </defs>
  </symbol>

  <symbol width="26" height="26" viewBox="0 0 26 26" fill="none" id="youtube">
    <path
      d="M6.3127 0.03125L8.09395 5.875V9.6875H9.59395V5.6875L11.3127 0.03125H9.8127L8.8752 3.875H8.78145L7.8127 0.03125H6.3127ZM13.2189 2.375C12.6174 2.375 12.1369 2.54688 11.7814 2.875C11.426 3.19922 11.2502 3.63672 11.2502 4.1875V7.875C11.2502 8.48047 11.4338 8.98828 11.7814 9.34375C12.133 9.70312 12.5744 9.875 13.1564 9.875C13.758 9.875 14.2502 9.69141 14.5939 9.34375C14.9377 8.99609 15.0939 8.51562 15.0939 7.90625V4.21875C15.0939 3.67578 14.9143 3.25 14.5627 2.90625C14.215 2.55859 13.7697 2.375 13.2189 2.375ZM16.2189 2.5625V8.53125C16.2189 8.95703 16.3127 9.25781 16.4689 9.46875C16.6252 9.67969 16.8518 9.78125 17.1564 9.78125C17.4025 9.78125 17.6447 9.71094 17.9064 9.5625C18.1721 9.41016 18.4455 9.19531 18.6877 8.90625V9.6875H20.0002V2.5625H18.6877V7.96875C18.5627 8.12109 18.4299 8.24609 18.2814 8.34375C18.133 8.44531 18.0041 8.5 17.9064 8.5C17.7854 8.5 17.6799 8.48047 17.6252 8.40625C17.5666 8.33203 17.5627 8.19531 17.5627 8.03125V2.5625H16.2189ZM13.1564 3.625C13.3322 3.625 13.4885 3.65625 13.5939 3.75C13.7033 3.84766 13.7502 3.97266 13.7502 4.125V8.03125C13.7502 8.22266 13.6994 8.36328 13.5939 8.46875C13.4885 8.57812 13.3361 8.625 13.1564 8.625C12.9807 8.625 12.8439 8.57422 12.7502 8.46875C12.6525 8.36328 12.6252 8.22656 12.6252 8.03125V4.125C12.6252 3.97266 12.6799 3.84766 12.7814 3.75C12.883 3.65625 12.9963 3.625 13.1564 3.625ZM13.0002 11.1562C10.4064 11.1523 7.86348 11.1758 5.3752 11.2812C3.63691 11.2812 2.21895 12.6836 2.21895 14.4062C2.11348 15.7695 2.05879 17.1367 2.0627 18.5C2.05879 19.8633 2.11348 21.2305 2.21895 22.5938C2.21895 24.3164 3.63691 25.7188 5.3752 25.7188C7.86348 25.8203 10.4064 25.8477 13.0002 25.8438C15.5979 25.8516 18.1408 25.8203 20.6252 25.7188C22.3635 25.7188 23.7814 24.3164 23.7814 22.5938C23.8869 21.2305 23.9416 19.8633 23.9377 18.5C23.9455 17.1367 23.8869 15.7695 23.7814 14.4062C23.7814 12.6836 22.3635 11.2812 20.6252 11.2812C18.1408 11.1758 15.5979 11.1523 13.0002 11.1562ZM3.7502 13.375H8.34395C8.42598 13.375 8.5002 13.4492 8.5002 13.5312V14.9375C8.5002 15.0195 8.42598 15.0938 8.34395 15.0938H6.9377V23.1875C6.9377 23.2695 6.89473 23.3438 6.8127 23.3438H5.3127C5.23066 23.3438 5.15645 23.2695 5.15645 23.1875V15.0938H3.7502C3.66816 15.0938 3.6252 15.0195 3.6252 14.9375V13.5312C3.6252 13.4492 3.66816 13.375 3.7502 13.375ZM13.4064 13.375H14.7502C14.8322 13.375 14.9064 13.4492 14.9064 13.5312V16.25C15.0158 16.1484 15.133 16.0664 15.2502 16C15.4768 15.875 15.7072 15.8125 15.9377 15.8125C16.4064 15.8125 16.7502 16 17.0002 16.3438C17.2385 16.6758 17.3752 17.1406 17.3752 17.75V21.7188C17.3752 22.2578 17.2619 22.6758 17.0314 22.9688C16.7932 23.2734 16.4377 23.4375 16.0002 23.4375C15.7229 23.4375 15.4768 23.3633 15.2502 23.25C15.1291 23.1875 15.0158 23.1289 14.9064 23.0312V23.1875C14.9064 23.2695 14.8322 23.3438 14.7502 23.3438H13.4064C13.3244 23.3438 13.2502 23.2695 13.2502 23.1875V13.5312C13.2502 13.4492 13.3244 13.375 13.4064 13.375ZM20.2189 15.7188C20.8674 15.7188 21.3986 15.9219 21.7502 16.3125C22.1018 16.7031 22.2814 17.2578 22.2814 17.9688V19.8125C22.2814 19.8945 22.2072 19.9375 22.1252 19.9375H19.7502V21.1562C19.7502 21.5938 19.7971 21.7656 19.8439 21.8438C19.883 21.9062 19.9494 22 20.1564 22C20.3244 22 20.4416 21.9531 20.5002 21.875C20.5275 21.832 20.5939 21.6758 20.5939 21.1562V20.6562C20.5939 20.5742 20.6682 20.5 20.7502 20.5H22.1252C22.2072 20.5 22.2814 20.5742 22.2814 20.6562V21.1875C22.2814 21.957 22.0744 22.543 21.7189 22.9375C21.3635 23.3359 20.8283 23.5312 20.1252 23.5312C19.4885 23.5312 18.9924 23.332 18.6252 22.9062C18.2619 22.4883 18.0627 21.9102 18.0627 21.1875V17.9688C18.0627 17.3125 18.2541 16.793 18.6564 16.375C19.0588 15.957 19.5861 15.7188 20.2189 15.7188ZM8.34395 15.9062H9.65645C9.73848 15.9062 9.8127 15.9805 9.8127 16.0625V21.5312C9.8127 21.7109 9.82441 21.7852 9.84395 21.8125C9.85176 21.8242 9.88691 21.875 10.0002 21.875C10.0393 21.875 10.1252 21.8594 10.2814 21.75C10.4104 21.6641 10.5236 21.5586 10.6252 21.4375V16.0625C10.6252 15.9805 10.6994 15.9062 10.7814 15.9062H12.1252C12.2072 15.9062 12.2502 15.9805 12.2502 16.0625V23.1875C12.2502 23.2695 12.2072 23.3438 12.1252 23.3438H10.7814C10.6994 23.3438 10.6252 23.2695 10.6252 23.1875V22.7812C10.4494 22.9531 10.2775 23.082 10.0939 23.1875C9.80488 23.3516 9.53145 23.4375 9.2502 23.4375C8.89473 23.4375 8.62129 23.3164 8.4377 23.0625C8.26191 22.8242 8.1877 22.4844 8.1877 22.0312V16.0625C8.1877 15.9805 8.26191 15.9062 8.34395 15.9062ZM15.2502 17.25C15.1994 17.2578 15.1486 17.2852 15.0939 17.3125C15.0314 17.3438 14.9689 17.4023 14.9064 17.4688V21.7812C14.9846 21.8633 15.051 21.9336 15.1252 21.9688C15.2072 22.0078 15.2854 22.0312 15.3752 22.0312C15.5432 22.0312 15.6096 21.9609 15.6252 21.9375C15.6643 21.8867 15.6877 21.7695 15.6877 21.5312V17.8438C15.6877 17.6406 15.6682 17.4727 15.5939 17.375C15.5197 17.2773 15.4025 17.2227 15.2502 17.25ZM20.1877 17.2812C20.0275 17.2812 19.9104 17.3164 19.8439 17.4062C19.7971 17.4727 19.7502 17.6367 19.7502 17.9688V18.5312H20.5939V17.9688C20.5939 17.6406 20.551 17.4805 20.5002 17.4062C20.4377 17.3203 20.34 17.2812 20.1877 17.2812Z"
      fill="url(#paint0_linear_177_2244)" />
    <defs>
      <linearGradient id="paint0_linear_177_2244" x1="26.743" y1="0.0312507" x2="-1.44001" y2="21.1914"
        gradientUnits="userSpaceOnUse">
        <stop offset="0.25" stop-color="#3B768F" />
        <stop offset="0.536458" stop-color="#3EC6FF" />
        <stop offset="0.817708" stop-color="#3B768F" />
      </linearGradient>
    </defs>
  </symbol>

  <symbol width="30" height="30" viewBox="0 0 30 30" fill="none" id="whatsapp">
    <path
      d="M15 3C8.373 3 3 8.373 3 15C3 17.2512 3.63234 19.3501 4.71094 21.1504L3.10742 27L9.08203 25.4316C10.8294 26.4251 12.8465 27 15 27C21.627 27 27 21.627 27 15C27 8.373 21.627 3 15 3ZM10.8926 9.40234C11.0876 9.40234 11.2879 9.40116 11.4609 9.41016C11.6749 9.41516 11.9079 9.43083 12.1309 9.92383C12.3959 10.5098 12.9729 11.9799 13.0469 12.1289C13.1209 12.2779 13.1733 12.4534 13.0703 12.6484C12.9723 12.8484 12.9213 12.9695 12.7773 13.1465C12.6283 13.3185 12.4651 13.5321 12.3301 13.6621C12.1811 13.8111 12.0272 13.9745 12.1992 14.2715C12.3712 14.5685 12.9686 15.5421 13.8516 16.3281C14.9866 17.3421 15.9442 17.6537 16.2422 17.8027C16.5402 17.9517 16.7128 17.9285 16.8848 17.7285C17.0618 17.5335 17.6281 16.8644 17.8281 16.5664C18.0231 16.2684 18.2222 16.32 18.4922 16.418C18.7662 16.516 20.2274 17.2358 20.5254 17.3848C20.8234 17.5338 21.0187 17.6075 21.0938 17.7285C21.1707 17.8535 21.1708 18.4486 20.9238 19.1426C20.6768 19.8356 19.4639 20.5057 18.9199 20.5527C18.3709 20.6037 17.8586 20.7995 15.3516 19.8125C12.3276 18.6215 10.4205 15.5242 10.2715 15.3242C10.1225 15.1292 9.06055 13.7139 9.06055 12.2539C9.06055 10.7889 9.82866 10.0714 10.0977 9.77344C10.3717 9.47544 10.6926 9.40234 10.8926 9.40234Z"
      fill="url(#paint0_linear_177_2246)" />
    <defs>
      <linearGradient id="paint0_linear_177_2246" x1="30.0769" y1="3" x2="2.98932" y2="26.9986"
        gradientUnits="userSpaceOnUse">
        <stop offset="0.25" stop-color="#3B768F" />
        <stop offset="0.536458" stop-color="#3EC6FF" />
        <stop offset="0.817708" stop-color="#3B768F" />
      </linearGradient>
    </defs>
  </symbol>

  <symbol width="31" height="25" viewBox="0 0 31 25" fill="none" id="cacao">
    <path
      d="M13 0C5.82 0 0 5.03342 0 11.2421C0 13.9772 1.13222 16.4811 3.00977 18.4302C3.04768 18.5266 4.01101 21.0603 1.1582 23.644C1.10823 23.6919 1.06841 23.7497 1.04119 23.8139C1.01398 23.8781 0.999959 23.9473 1 24.0173C1 24.1528 1.05268 24.2828 1.14645 24.3786C1.24021 24.4745 1.36739 24.5283 1.5 24.5283C1.53613 24.5283 1.57214 24.5243 1.60742 24.5163C4.48328 24.3422 6.94346 22.8836 8.44531 21.7597C9.86471 22.2197 11.3948 22.4843 13 22.4843C20.18 22.4843 26 17.4509 26 11.2421C26 5.03342 20.18 0 13 0Z"
      fill="url(#paint0_linear_177_2255)" />
    <path
      d="M5.352 9.96646V14.0225H3.448V9.96646H2.056V8.35846H6.744V9.96646H5.352ZM6.19231 14.0225L8.42431 8.35846H10.4483L12.6563 14.0225H10.5843L10.2883 13.1905H8.48831L8.20831 14.0225H6.19231ZM9.86431 11.7345L9.40831 10.3345L8.94431 11.7345H9.86431ZM13.0592 14.0225V8.35846H14.9793V12.3905H16.8593V14.0225H13.0592ZM20.8339 14.0225L19.3219 11.7665H19.3059V14.0225H17.4499V8.35846H19.2979V10.4465H19.3139L20.8259 8.35846H23.0659L20.9379 10.9505L23.1699 14.0225H20.8339Z"
      fill="#08262B" />
    <defs>
      <linearGradient id="paint0_linear_177_2255" x1="29.3333" y1="7.01447e-07" x2="1.50119" y2="26.1377"
        gradientUnits="userSpaceOnUse">
        <stop offset="0.25" stop-color="#3B768F" />
        <stop offset="0.536458" stop-color="#3EC6FF" />
        <stop offset="0.817708" stop-color="#3B768F" />
      </linearGradient>
    </defs>
  </symbol>



</svg>